<?xml version="1.0" encoding="UTF-8"?><svg id="Layer_3" xmlns="http://www.w3.org/2000/svg" viewBox="0 0 16.5 16.5"><defs><style>.cls-1{fill:#3597d3;}.cls-2{fill:none;stroke:#3597d3;stroke-linecap:round;stroke-linejoin:round;stroke-width:.75px;}</style></defs><polyline class="cls-2" points="3.7 1.15 7.83 4.72 12.14 1.37 12.14 7.69 10.94 7.69 3.7 7.69 3.7 1.15 12.14 1.15"/><polyline class="cls-2" points="3.7 3.06 1.23 3.06 1.23 9.42 8.66 9.42 8.66 7.71"/><line class="cls-2" x1="3.7" y1="5.42" x2="1.23" y2="3.06"/><polyline class="cls-2" points="1.47 9.89 1.47 15.11 15.03 15.11 15.03 2.94 12.56 2.94"/><path class="cls-1" d="M3.87,13.71v-2.7h.55v2.7h-.55Z"/><path class="cls-1" d="M4.93,13.71v-2.7h.82l.49,1.84.49-1.84h.82v2.7h-.51v-2.13l-.54,2.13h-.53l-.54-2.13v2.13h-.51Z"/><path class="cls-1" d="M10.52,13.71h-.59l-.24-.61h-1.08l-.22.61h-.58l1.05-2.7h.58l1.08,2.7ZM9.52,12.64l-.37-1-.36,1h.74Z"/><path class="cls-1" d="M10.81,13.71v-2.7h.88c.33,0,.55.01.65.04.15.04.28.13.39.26s.16.31.16.53c0,.17-.03.31-.09.42s-.14.2-.23.27-.19.11-.28.13c-.13.03-.32.04-.57.04h-.36v1.02h-.55ZM11.36,11.46v.77h.3c.21,0,.36-.01.43-.04.07-.03.13-.07.17-.13.04-.06.06-.13.06-.21,0-.1-.03-.18-.09-.24-.06-.06-.13-.1-.22-.12-.06-.01-.2-.02-.39-.02h-.26Z"/></svg>