<?xml version="1.0" encoding="UTF-8"?><svg id="Layer_3" xmlns="http://www.w3.org/2000/svg" viewBox="0 0 16.5 16.5"><defs><style>.cls-1{fill:none;stroke:#000;stroke-linecap:round;stroke-linejoin:round;stroke-width:.75px;}</style></defs><polyline class="cls-1" points="3.7 1.15 7.83 4.72 12.14 1.37 12.14 7.69 10.94 7.69 3.7 7.69 3.7 1.15 12.14 1.15"/><polyline class="cls-1" points="3.7 3.06 1.23 3.06 1.23 9.42 8.66 9.42 8.66 7.71"/><line class="cls-1" x1="3.7" y1="5.42" x2="1.23" y2="3.06"/><polyline class="cls-1" points="1.47 9.89 1.47 15.11 15.03 15.11 15.03 2.94 12.56 2.94"/><path d="M3.57,13.71v-2.7h.88c.33,0,.55.01.65.04.15.04.28.13.39.26s.16.31.16.53c0,.17-.03.31-.09.42s-.14.2-.23.27-.19.11-.28.13c-.13.03-.32.04-.57.04h-.36v1.02h-.55ZM4.12,11.46v.77h.3c.21,0,.36-.01.43-.04.07-.03.13-.07.17-.13.04-.06.06-.13.06-.21,0-.1-.03-.18-.09-.24-.06-.06-.13-.1-.22-.12-.06-.01-.2-.02-.39-.02h-.26Z"/><path d="M5.98,12.37c0-.28.04-.51.12-.69.06-.14.15-.26.25-.37.11-.11.22-.19.35-.24.17-.07.36-.11.58-.11.4,0,.72.12.96.37s.36.59.36,1.03-.12.78-.36,1.02c-.24.25-.55.37-.95.37s-.72-.12-.96-.37c-.24-.25-.36-.58-.36-1.01ZM6.55,12.35c0,.31.07.54.21.7.14.16.32.24.54.24s.4-.08.54-.23c.14-.16.21-.39.21-.71s-.07-.54-.2-.69c-.14-.15-.32-.23-.54-.23s-.41.08-.54.23-.21.39-.21.7Z"/><path d="M9.03,13.71v-2.7h.88c.33,0,.55.01.65.04.15.04.28.13.39.26s.16.31.16.53c0,.17-.03.31-.09.42s-.14.2-.23.27-.19.11-.28.13c-.13.03-.32.04-.57.04h-.36v1.02h-.55ZM9.58,11.46v.77h.3c.21,0,.36-.01.43-.04.07-.03.13-.07.17-.13.04-.06.06-.13.06-.21,0-.1-.03-.18-.09-.24-.06-.06-.13-.1-.22-.12-.06-.01-.2-.02-.39-.02h-.26Z"/><path d="M11.42,12.99l.5-.06c.02.13.06.23.13.29.07.07.16.1.25.1.11,0,.2-.04.27-.12.07-.08.11-.19.11-.33,0-.13-.04-.23-.11-.31-.07-.08-.16-.11-.26-.11-.07,0-.15.01-.24.04l.06-.42c.14,0,.25-.03.32-.09.07-.06.11-.15.11-.26,0-.09-.03-.16-.08-.22-.05-.05-.13-.08-.22-.08s-.16.03-.23.09c-.06.06-.1.15-.11.27l-.48-.08c.03-.16.08-.29.15-.39s.16-.17.28-.23c.12-.06.25-.08.4-.08.25,0,.46.08.61.24.13.13.19.28.19.45,0,.24-.13.43-.39.57.16.03.28.11.37.22.09.12.14.26.14.42,0,.24-.09.44-.26.61-.17.17-.39.25-.65.25-.24,0-.45-.07-.61-.21s-.25-.33-.28-.55Z"/></svg>