<?xml version="1.0" encoding="UTF-8"?><svg id="Layer_3" xmlns="http://www.w3.org/2000/svg" viewBox="0 0 16.5 16.5"><defs><style>.cls-1{fill:none;stroke:#000;stroke-linecap:round;stroke-linejoin:round;stroke-width:.75px;}</style></defs><polyline class="cls-1" points="3.7 1.15 7.83 4.72 12.14 1.37 12.14 7.69 10.94 7.69 3.7 7.69 3.7 1.15 12.14 1.15"/><polyline class="cls-1" points="3.7 3.06 1.23 3.06 1.23 9.42 8.66 9.42 8.66 7.71"/><line class="cls-1" x1="3.7" y1="5.42" x2="1.23" y2="3.06"/><polyline class="cls-1" points="1.47 9.89 1.47 15.11 15.03 15.11 15.03 2.94 12.56 2.94"/><path d="M2.31,13.71v-2.7h.88c.33,0,.55.01.65.04.15.04.28.13.39.26s.16.31.16.53c0,.17-.03.31-.09.42-.06.11-.14.2-.23.27s-.19.11-.28.13c-.13.03-.32.04-.57.04h-.36v1.02h-.55ZM2.86,11.46v.77h.3c.21,0,.36-.01.43-.04s.13-.07.17-.13c.04-.06.06-.13.06-.21,0-.1-.03-.18-.09-.24-.06-.06-.13-.1-.22-.12-.06-.01-.2-.02-.39-.02h-.26Z"/><path d="M4.72,12.37c0-.28.04-.51.12-.69.06-.14.15-.26.25-.37.11-.11.22-.19.35-.24.17-.07.36-.11.58-.11.4,0,.72.12.96.37s.36.59.36,1.03-.12.78-.36,1.02c-.24.25-.55.37-.95.37s-.72-.12-.96-.37c-.24-.25-.36-.58-.36-1.01ZM5.29,12.35c0,.31.07.54.21.7.14.16.32.24.54.24s.4-.08.54-.23c.14-.16.21-.39.21-.71s-.07-.54-.2-.69-.32-.23-.54-.23-.41.08-.54.23-.21.39-.21.7Z"/><path d="M7.77,13.71v-2.7h.88c.33,0,.55.01.65.04.15.04.28.13.39.26s.16.31.16.53c0,.17-.03.31-.09.42-.06.11-.14.2-.23.27s-.19.11-.28.13c-.13.03-.32.04-.57.04h-.36v1.02h-.55ZM8.32,11.46v.77h.3c.21,0,.36-.01.43-.04s.13-.07.17-.13c.04-.06.06-.13.06-.21,0-.1-.03-.18-.09-.24-.06-.06-.13-.1-.22-.12-.06-.01-.2-.02-.39-.02h-.26Z"/><path d="M10.16,12.99l.5-.06c.02.13.06.23.13.29.07.07.16.1.25.1.11,0,.2-.04.27-.12.07-.08.11-.19.11-.33,0-.13-.04-.23-.11-.31-.07-.08-.16-.11-.26-.11-.07,0-.15.01-.24.04l.06-.42c.14,0,.25-.03.32-.09.07-.06.11-.15.11-.26,0-.09-.03-.16-.08-.22s-.13-.08-.22-.08-.16.03-.23.09c-.06.06-.1.15-.11.27l-.48-.08c.03-.16.08-.29.15-.39.07-.1.16-.17.28-.23.12-.06.25-.08.4-.08.25,0,.46.08.61.24.13.13.19.28.19.45,0,.24-.13.43-.39.57.16.03.28.11.37.22.09.12.14.26.14.42,0,.24-.09.44-.26.61-.17.17-.39.25-.65.25s-.45-.07-.61-.21-.25-.33-.28-.55Z"/><path d="M12.25,12.83l.53-.05c.03.18.1.31.2.39.1.08.23.12.4.12.18,0,.31-.04.4-.11.09-.07.13-.16.13-.26,0-.06-.02-.12-.06-.16-.04-.04-.1-.08-.2-.12-.06-.02-.21-.06-.44-.12-.29-.07-.5-.16-.62-.27-.17-.15-.25-.33-.25-.54,0-.14.04-.27.12-.39.08-.12.19-.21.34-.27.15-.06.32-.09.53-.09.34,0,.59.08.77.22.17.15.26.35.27.6l-.55.02c-.02-.14-.07-.24-.15-.3-.08-.06-.19-.09-.35-.09s-.28.03-.37.1c-.06.04-.09.1-.09.17,0,.06.03.12.08.16.07.06.24.12.5.18s.46.13.59.19c.13.07.23.16.3.28s.11.26.11.43c0,.15-.04.3-.13.43-.09.14-.21.24-.37.3-.16.07-.35.1-.59.1-.34,0-.6-.08-.79-.24-.18-.16-.29-.39-.33-.69Z"/></svg>