<?xml version="1.0" encoding="UTF-8"?><svg id="Layer_3" xmlns="http://www.w3.org/2000/svg" viewBox="0 0 16.5 16.5"><defs><style>.cls-1{fill:#3597d3;}.cls-2{fill:none;stroke:#3597d3;stroke-linecap:round;stroke-linejoin:round;stroke-width:.75px;}</style></defs><polyline class="cls-2" points="3.7 1.15 7.83 4.72 12.14 1.37 12.14 7.69 10.94 7.69 3.7 7.69 3.7 1.15 12.14 1.15"/><polyline class="cls-2" points="3.7 3.06 1.23 3.06 1.23 9.42 8.66 9.42 8.66 7.71"/><line class="cls-2" x1="3.7" y1="5.42" x2="1.23" y2="3.06"/><polyline class="cls-2" points="1.47 9.89 1.47 15.11 15.03 15.11 15.03 2.94 12.56 2.94"/><path class="cls-1" d="M2.61,13.01l.48-.05c.03.16.09.28.17.35.09.08.21.11.36.11.16,0,.28-.03.36-.1.08-.07.12-.14.12-.23,0-.06-.02-.11-.05-.15-.03-.04-.09-.08-.18-.11-.06-.02-.19-.05-.39-.11-.26-.07-.45-.15-.55-.24-.15-.13-.22-.3-.22-.49,0-.12.04-.24.11-.35.07-.11.17-.19.3-.25s.29-.08.48-.08c.31,0,.54.07.69.2.15.13.24.31.24.54l-.49.02c-.02-.12-.07-.21-.14-.27s-.17-.08-.31-.08-.25.03-.34.09c-.05.04-.08.09-.08.15,0,.06.02.11.07.15.06.05.21.11.45.16.24.06.42.11.53.17.11.06.2.14.27.25.06.1.1.23.1.39,0,.14-.04.27-.12.39-.08.12-.19.21-.33.27-.14.06-.32.09-.53.09-.31,0-.54-.07-.71-.21-.17-.14-.26-.35-.3-.62Z"/><path class="cls-1" d="M4.99,13.8v-2.43h.74l.44,1.66.44-1.66h.74v2.43h-.46v-1.92l-.48,1.92h-.47l-.48-1.92v1.92h-.46Z"/><path class="cls-1" d="M8.38,13.8v-2.02h-.72v-.41h1.93v.41h-.72v2.02h-.49Z"/><path class="cls-1" d="M9.91,13.8v-2.43h.79c.3,0,.49.01.58.04.14.04.26.12.35.24.09.12.14.28.14.47,0,.15-.03.27-.08.38-.05.1-.12.18-.21.24-.08.06-.17.1-.25.12-.12.02-.29.04-.51.04h-.32v.92h-.49ZM10.4,11.78v.69h.27c.19,0,.32-.01.39-.04.07-.03.12-.07.15-.12.04-.05.06-.12.06-.19,0-.09-.03-.16-.08-.22s-.12-.09-.2-.11c-.06-.01-.18-.02-.35-.02h-.24Z"/><path class="cls-1" d="M12.05,13.01l.48-.05c.03.16.09.28.17.35.09.08.21.11.36.11.16,0,.28-.03.36-.1.08-.07.12-.14.12-.23,0-.06-.02-.11-.05-.15-.03-.04-.09-.08-.18-.11-.06-.02-.19-.05-.39-.11-.26-.07-.45-.15-.55-.24-.15-.13-.22-.3-.22-.49,0-.12.04-.24.11-.35.07-.11.17-.19.3-.25s.29-.08.48-.08c.31,0,.54.07.69.2.15.13.24.31.24.54l-.49.02c-.02-.12-.07-.21-.14-.27s-.17-.08-.31-.08-.25.03-.34.09c-.05.04-.08.09-.08.15,0,.06.02.11.07.15.06.05.21.11.45.16.24.06.42.11.53.17.11.06.2.14.27.25.06.1.1.23.1.39,0,.14-.04.27-.12.39-.08.12-.19.21-.33.27-.14.06-.32.09-.53.09-.31,0-.54-.07-.71-.21-.17-.14-.26-.35-.3-.62Z"/></svg>