<?xml version="1.0" encoding="UTF-8"?><svg id="Layer_3" xmlns="http://www.w3.org/2000/svg" viewBox="0 0 16.5 16.5"><defs><style>.cls-1{fill:#3597d3;}.cls-2{fill:none;stroke:#3597d3;stroke-linecap:round;stroke-linejoin:round;stroke-width:.75px;}</style></defs><polyline class="cls-2" points="3.7 1.15 7.83 4.72 12.14 1.37 12.14 7.69 10.94 7.69 3.7 7.69 3.7 1.15 12.14 1.15"/><polyline class="cls-2" points="3.7 3.06 1.23 3.06 1.23 9.42 8.66 9.42 8.66 7.71"/><line class="cls-2" x1="3.7" y1="5.42" x2="1.23" y2="3.06"/><polyline class="cls-2" points="1.47 9.89 1.47 15.11 15.03 15.11 15.03 2.94 12.56 2.94"/><path class="cls-1" d="M3.23,12.83l.53-.05c.03.18.1.31.19.39.1.08.23.12.4.12.18,0,.31-.04.4-.11.09-.07.13-.16.13-.26,0-.06-.02-.12-.06-.16s-.1-.08-.2-.12c-.06-.02-.21-.06-.44-.12-.29-.07-.5-.16-.62-.27-.17-.15-.25-.33-.25-.54,0-.14.04-.27.12-.39.08-.12.19-.21.34-.27.15-.06.32-.09.53-.09.34,0,.59.08.77.22.17.15.26.35.27.6l-.55.02c-.02-.14-.07-.24-.15-.3-.08-.06-.19-.09-.35-.09s-.28.03-.37.1c-.06.04-.09.1-.09.17,0,.06.03.12.08.16.07.06.24.12.5.18s.46.13.59.19c.13.07.23.16.3.28.07.12.11.26.11.43,0,.15-.04.3-.13.43-.09.14-.21.24-.37.3-.16.07-.35.1-.59.1-.34,0-.6-.08-.79-.24-.18-.16-.29-.39-.33-.69Z"/><path class="cls-1" d="M5.88,13.71v-2.7h.82l.49,1.84.49-1.84h.82v2.7h-.51v-2.13l-.54,2.13h-.53l-.54-2.13v2.13h-.51Z"/><path class="cls-1" d="M9.64,13.71v-2.25h-.8v-.46h2.15v.46h-.8v2.25h-.55Z"/><path class="cls-1" d="M11.34,13.71v-2.7h.88c.33,0,.55.01.65.04.15.04.28.13.39.26s.16.31.16.53c0,.17-.03.31-.09.42s-.14.2-.23.27-.19.11-.28.13c-.13.03-.32.04-.57.04h-.36v1.02h-.55ZM11.89,11.46v.77h.3c.21,0,.36-.01.43-.04.07-.03.13-.07.17-.13.04-.06.06-.13.06-.21,0-.1-.03-.18-.09-.24-.06-.06-.13-.1-.22-.12-.06-.01-.2-.02-.39-.02h-.26Z"/></svg>